<?xml version="1.0" encoding="UTF-8" standalone="no"?>
<!DOCTYPE svg PUBLIC "-//W3C//DTD SVG 1.1//EN" "http://www.w3.org/Graphics/SVG/1.1/DTD/svg11.dtd">
<svg width="100%" height="100%" viewBox="0 0 1024 1024" version="1.1" xmlns="http://www.w3.org/2000/svg" xmlns:xlink="http://www.w3.org/1999/xlink" xml:space="preserve" xmlns:serif="http://www.serif.com/" style="fill-rule:evenodd;clip-rule:evenodd;stroke-linecap:round;stroke-linejoin:round;stroke-miterlimit:1.5;">
    <g transform="matrix(1.42334,0,0,1.08342,-273.407,-106.417)">
        <path d="M494,718C569.608,773.445 596.294,867.071 588,988L619,986C631.467,856.751 707.122,779.178 781,740C700.323,686.761 607.42,670.963 494,718Z" style="fill:rgb(234,89,110);stroke:rgb(234,89,110);stroke-width:18.36px;"/>
    </g>
    <g transform="matrix(1.08355,0,0,1.08342,-49.2069,-104.162)">
        <path d="M267.578,678.302C267.578,678.302 282.613,800.223 381,809C444.651,814.678 552.167,740.5 626,735C693.214,729.993 771.833,791 824,776C876.167,761 917.519,698.989 939,645C966.275,576.451 952.47,434.837 920,385C877,319 799.833,254.833 739,219C684.312,186.786 567.857,170.375 555,170C542.143,169.625 351.333,175 273,213C194.667,251 111,333.333 85,398C59.446,461.557 87.196,549.301 117,601C146.804,652.699 267.578,678.302 267.578,678.302Z" style="fill:rgb(244,171,186);stroke:rgb(234,89,110);stroke-width:21.43px;"/>
    </g>
    <g transform="matrix(1.02495,0,0,1.13946,-4.49683,-129.94)">
        <path d="M763,460C740,481 724.355,516.031 694,523C661.333,530.5 605.5,498.167 567,505C528.5,511.833 501.979,555.68 463,564C420.833,573 350.333,537.667 314,559C277.667,580.333 233.833,650.333 245,692" style="fill:none;stroke:rgb(234,89,110);stroke-width:21.42px;"/>
    </g>
    <g transform="matrix(1.08355,0,0,1.08342,-57.8753,-107.946)">
        <path d="M331,292C363,247 388.871,240.865 438,259" style="fill:none;stroke:rgb(234,89,110);stroke-width:21.43px;"/>
    </g>
    <g transform="matrix(1.08355,0,0,1.08342,-50.2904,-108.496)">
        <path d="M657,248L744,293" style="fill:none;stroke:rgb(234,89,110);stroke-width:21.43px;"/>
    </g>
    <g transform="matrix(1.08355,0,0,1.08342,-49.2069,-104.162)">
        <path d="M562,246C543,286 544,354 571,418" style="fill:none;stroke:rgb(234,89,110);stroke-width:21.43px;"/>
    </g>
    <g transform="matrix(1.08355,0,0,1.08342,-49.2069,-104.162)">
        <path d="M720,345L686,373L679,443L685.333,379.671L657,333" style="fill:none;stroke:rgb(234,89,110);stroke-width:21.43px;"/>
    </g>
    <g transform="matrix(1.08355,0,0,1.08342,-49.2069,-104.162)">
        <path d="M812,380C854,416 859,471 847,521" style="fill:none;stroke:rgb(234,89,110);stroke-width:21.43px;"/>
    </g>
    <g transform="matrix(1.08355,0,0,1.08342,-49.2069,-104.162)">
        <path d="M424,358C385,425 396,488 434,554" style="fill:none;stroke:rgb(234,89,110);stroke-width:21.43px;"/>
    </g>
    <g transform="matrix(1.08355,0,0,1.08342,-75.212,-105.246)">
        <path d="M286,354C281.722,396.034 292.155,439.347 318,484" style="fill:none;stroke:rgb(234,89,110);stroke-width:21.43px;"/>
    </g>
    <g transform="matrix(1.08355,0,0,1.08342,-82.7969,-117.163)">
        <path d="M202,513C209,567 236,590 288,617" style="fill:none;stroke:rgb(234,89,110);stroke-width:21.43px;"/>
    </g>
    <g transform="matrix(1.08355,0,0,1.08342,-49.2069,-104.162)">
        <path d="M752,586L702,639L563,635L511,681L399,673" style="fill:none;stroke:rgb(234,89,110);stroke-width:21.43px;"/>
    </g>
    <g transform="matrix(1.08355,0,0,1.08342,-49.2069,-104.162)">
        <path d="M874,624C874.067,660.401 820,709 820,709" style="fill:none;stroke:rgb(234,89,110);stroke-width:21.43px;"/>
    </g>
</svg>
